# xmcd CD database file
#
# Track frame offsets:
#	150
#	13258
#	30484
#	48179
#	62720
#	74511
#	89099
#	99848
#	119704
#	130280
#	147651
#	157737
#	169030
#
# Disc length: 2514 seconds
#
# Revision: 2
# Processed by: cddbd v1.4b42PL0 Copyright (c) Steve Scherf et al.
# Submitted via: CDex 1.40Beta5
#
DISCID=b609d00d
DTITLE=Kentucky Headhunters - Best of
DYEAR=1900
DGENRE=Country
TTITLE0=Dumas Walker
TTITLE1=Walk Softly on this Heart of Mine
TTITLE2=Rock N' Roll Angel
TTITLE3=Oh Lonesome Me
TTITLE4=The Ballald of Davy Cockett
TTITLE5=Only Daddy That'll Walk The Line
TTITLE6=It's Chitlin' Time
TTITLE7=Sprint In The Sky
TTITLE8=Let's Work Together
TTITLE9=Honky Tonk Walkin'
TTITLE10=Dixie Fried
TTITLE11=Redneck Girl
TTITLE12=You've Go To Hide Your Love Away
EXTD=ID3G:   2
EXTT0=
EXTT1=
EXTT2=
EXTT3=
EXTT4=
EXTT5=
EXTT6=
EXTT7=
EXTT8=
EXTT9=
EXTT10=
EXTT11=
EXTT12=
PLAYORDER=
